<svg width="936" height="182" viewBox="0 0 936 182" fill="none" xmlns="http://www.w3.org/2000/svg">
<rect x="5" y="9" width="158" height="158" rx="35" fill="white" stroke="#EBEBEB" stroke-width="10"/>
<path d="M0 44C0 21.9086 17.9086 4 40 4H92V172H40C17.9086 172 0 154.091 0 132V44Z" fill="#0089A1" fill-opacity="0.5"/>
<rect x="43" y="36" width="81" height="103" rx="7" fill="#005E6E"/>
<rect x="51" y="45" width="3" height="13" rx="1.5" fill="white"/>
<rect x="51" y="66" width="3" height="13" rx="1.5" fill="white"/>
<path d="M115.667 47C115.667 45.8953 115.07 45 114.333 45C113.597 45 113 45.8953 113 47C113 48.1047 112.403 49 111.667 49C110.93 49 110.333 48.1047 110.333 47M115.667 47C115.667 47.74 115.399 48.3867 115 48.7327M115.667 47L116.333 47M115.667 47L110.333 47M110.333 47L109.667 47M110.333 47C110.333 46.26 110.601 45.6133 111 45.2673M113 53C112.212 53 111.432 52.8448 110.704 52.5433C109.976 52.2417 109.315 51.7998 108.757 51.2426C108.2 50.6855 107.758 50.0241 107.457 49.2961C107.155 48.5681 107 47.7879 107 47C107 46.2121 107.155 45.4319 107.457 44.7039C107.758 43.9759 108.2 43.3145 108.757 42.7574C109.315 42.2002 109.976 41.7583 110.704 41.4567C111.432 41.1552 112.212 41 113 41C114.591 41 116.117 41.6321 117.243 42.7574C118.368 43.8826 119 45.4087 119 47C119 48.5913 118.368 50.1174 117.243 51.2426C116.117 52.3679 114.591 53 113 53Z" stroke="white" stroke-width="1.5" stroke-linecap="round" stroke-linejoin="round"/>
<path d="M228.88 155V20.9H320.68V45.2H256.78V79.22H311.68V103.52H256.78V155H228.88ZM332.545 155V18.74H359.545V155H332.545ZM409.722 157.16C402.642 157.16 396.522 156.02 391.362 153.74C386.202 151.46 382.242 148.22 379.482 144.02C376.722 139.7 375.342 134.6 375.342 128.72C375.342 123.2 376.602 118.34 379.122 114.14C381.642 109.82 385.482 106.22 390.642 103.34C395.922 100.46 402.462 98.42 410.262 97.22L440.322 92.36V112.16L415.122 116.66C411.282 117.38 408.342 118.64 406.302 120.44C404.262 122.12 403.242 124.58 403.242 127.82C403.242 130.82 404.382 133.16 406.662 134.84C408.942 136.52 411.762 137.36 415.122 137.36C419.562 137.36 423.462 136.4 426.822 134.48C430.182 132.56 432.762 129.98 434.562 126.74C436.482 123.38 437.442 119.72 437.442 115.76V90.2C437.442 86.48 435.942 83.36 432.942 80.84C430.062 78.32 426.102 77.06 421.062 77.06C416.262 77.06 412.002 78.38 408.282 81.02C404.682 83.66 402.042 87.14 400.362 91.46L378.762 81.2C380.682 75.68 383.742 70.94 387.942 66.98C392.142 63.02 397.182 59.96 403.062 57.8C408.942 55.64 415.362 54.56 422.322 54.56C430.602 54.56 437.922 56.06 444.282 59.06C450.642 62.06 455.562 66.26 459.042 71.66C462.642 76.94 464.442 83.12 464.442 90.2V155H439.242V139.16L445.362 138.08C442.482 142.4 439.302 146 435.822 148.88C432.342 151.64 428.442 153.68 424.122 155C419.802 156.44 415.002 157.16 409.722 157.16ZM484.244 155V56.72H509.444V80.3L507.644 76.88C509.804 68.6 513.344 63.02 518.264 60.14C523.304 57.14 529.244 55.64 536.084 55.64H541.844V79.04H533.384C526.784 79.04 521.444 81.08 517.364 85.16C513.284 89.12 511.244 94.76 511.244 102.08V155H484.244ZM584.097 157.16C577.017 157.16 570.897 156.02 565.737 153.74C560.577 151.46 556.617 148.22 553.857 144.02C551.097 139.7 549.717 134.6 549.717 128.72C549.717 123.2 550.977 118.34 553.497 114.14C556.017 109.82 559.857 106.22 565.017 103.34C570.297 100.46 576.837 98.42 584.637 97.22L614.697 92.36V112.16L589.497 116.66C585.657 117.38 582.717 118.64 580.677 120.44C578.637 122.12 577.617 124.58 577.617 127.82C577.617 130.82 578.757 133.16 581.037 134.84C583.317 136.52 586.137 137.36 589.497 137.36C593.937 137.36 597.837 136.4 601.197 134.48C604.557 132.56 607.137 129.98 608.937 126.74C610.857 123.38 611.817 119.72 611.817 115.76V90.2C611.817 86.48 610.317 83.36 607.317 80.84C604.437 78.32 600.477 77.06 595.437 77.06C590.637 77.06 586.377 78.38 582.657 81.02C579.057 83.66 576.417 87.14 574.737 91.46L553.137 81.2C555.057 75.68 558.117 70.94 562.317 66.98C566.517 63.02 571.557 59.96 577.437 57.8C583.317 55.64 589.737 54.56 596.697 54.56C604.977 54.56 612.297 56.06 618.657 59.06C625.017 62.06 629.937 66.26 633.417 71.66C637.017 76.94 638.817 83.12 638.817 90.2V155H613.617V139.16L619.737 138.08C616.857 142.4 613.677 146 610.197 148.88C606.717 151.64 602.817 153.68 598.497 155C594.177 156.44 589.377 157.16 584.097 157.16ZM687.641 155L648.941 56.72H678.101L704.921 131.06H693.761L720.581 56.72H749.741L711.041 155H687.641ZM807.209 157.16C796.769 157.16 787.709 154.88 780.029 150.32C772.349 145.64 766.409 139.4 762.209 131.6C758.009 123.8 755.909 115.16 755.909 105.68C755.909 95.84 758.069 87.08 762.389 79.4C766.829 71.72 772.769 65.66 780.209 61.22C787.649 56.78 796.049 54.56 805.409 54.56C813.209 54.56 820.109 55.82 826.109 58.34C832.109 60.74 837.149 64.16 841.229 68.6C845.429 73.04 848.609 78.2 850.769 84.08C852.929 89.84 854.009 96.14 854.009 102.98C854.009 104.9 853.889 106.82 853.649 108.74C853.529 110.54 853.229 112.1 852.749 113.42H779.129V93.62H837.449L824.669 102.98C825.869 97.82 825.809 93.26 824.489 89.3C823.169 85.22 820.829 82.04 817.469 79.76C814.229 77.36 810.209 76.16 805.409 76.16C800.729 76.16 796.709 77.3 793.349 79.58C789.989 81.86 787.469 85.22 785.789 89.66C784.109 94.1 783.449 99.5 783.809 105.86C783.329 111.38 783.989 116.24 785.789 120.44C787.589 124.64 790.349 127.94 794.069 130.34C797.789 132.62 802.289 133.76 807.569 133.76C812.369 133.76 816.449 132.8 819.809 130.88C823.289 128.96 825.989 126.32 827.909 122.96L849.509 133.22C847.589 138.02 844.529 142.22 840.329 145.82C836.249 149.42 831.389 152.24 825.749 154.28C820.109 156.2 813.929 157.16 807.209 157.16ZM869.908 155V18.74H896.908V155H869.908Z" fill="black"/>
</svg>
